<?xml version="1.0" encoding="utf-8"?>
<!-- Generator: Adobe Illustrator 17.1.0, SVG Export Plug-In . SVG Version: 6.00 Build 0)  -->
<!DOCTYPE svg PUBLIC "-//W3C//DTD SVG 1.1//EN" "http://www.w3.org/Graphics/SVG/1.1/DTD/svg11.dtd">
<svg version="1.1" id="Réteg_1" xmlns="http://www.w3.org/2000/svg" xmlns:xlink="http://www.w3.org/1999/xlink" x="0px" y="0px"
	 viewBox="0 0 290 80.8" enable-background="new 0 0 290 80.8" xml:space="preserve" width="290px" height="80px">
<g>
	<g>
		<path fill="#60BDCB" d="M40.4,0.1C18.1,0.1,0,18.2,0,40.5c0,21.5,16.7,39,37.9,40.3l0-8.7c0,0,0,0,0,0c0-1.4,1.1-2.5,2.5-2.5
			c1.4,0,2.5,1.1,2.5,2.5c0,0,0,0,0,0l0,8.7c21.1-1.3,37.8-18.9,37.8-40.3C80.8,18.2,62.7,0.1,40.4,0.1z M74.6,33.6
			c0,0-0.9,2.8-2.5,3.1c-1.4,0.3-2.7-0.6-3-2c-0.3-1.4,0.6-2.7,2-3C72.7,31.4,74.6,33.6,74.6,33.6z M75.3,40.4c0,0-1.4,2.5-3.1,2.5
			c-1.4,0-2.5-1.1-2.5-2.5c0-1.4,1.1-2.5,2.5-2.5C73.8,37.9,75.3,40.4,75.3,40.4z M72.6,27.1c0,0-0.3,2.9-1.9,3.5
			c-1.3,0.5-2.8-0.1-3.3-1.4c-0.5-1.3,0.1-2.8,1.4-3.3C70.3,25.3,72.6,27.1,72.6,27.1z M46.8,53.2c-1.8-1.8-1.8-4.7,0-6.5
			c1.8-1.8,4.7-1.8,6.4,0c2.1,2.1,0.7,7.1,0.7,7.1S48.9,55.3,46.8,53.2z M51.1,66.3c0,0-4-0.5-4.9-2.6c-0.7-1.8,0.1-3.9,1.9-4.6
			c1.8-0.7,3.9,0.1,4.6,1.9C53.6,63.2,51.1,66.3,51.1,66.3z M40.4,47.5c-3.9,0-7.1-3.2-7.1-7.1c0-3.9,3.2-7.1,7.1-7.1
			c3.9,0,7.1,3.2,7.1,7.1C47.5,44.3,44.4,47.5,40.4,47.5z M45,53.9c0,3-4.6,5.6-4.6,5.6s-4.6-2.5-4.6-5.6c0-2.5,2-4.6,4.6-4.6
			C42.9,49.4,45,51.4,45,53.9z M34.1,53.2c-2.1,2.1-7.2,0.7-7.2,0.7s-1.4-5,0.7-7.2c1.8-1.8,4.7-1.8,6.4,0
			C35.9,48.5,35.9,51.4,34.1,53.2z M34.5,63.7c-0.9,2.2-4.9,2.6-4.9,2.6S27.1,63.2,28,61c0.7-1.8,2.8-2.6,4.6-1.9
			C34.4,59.9,35.3,61.9,34.5,63.7z M34.1,27.6c1.8,1.8,1.8,4.7,0,6.5c-1.8,1.8-4.7,1.8-6.4,0c-2.1-2.1-0.7-7.2-0.7-7.2
			S31.9,25.5,34.1,27.6z M29.7,14.4c0,0,4,0.5,4.9,2.6c0.7,1.8-0.1,3.9-1.9,4.6c-1.8,0.7-3.9-0.1-4.6-1.9
			C27.2,17.6,29.7,14.4,29.7,14.4z M31.4,40.4c0,2.5-2,4.6-4.6,4.6c-3,0-5.6-4.6-5.6-4.6s2.5-4.6,5.6-4.6
			C29.4,35.8,31.4,37.9,31.4,40.4z M26.1,26c-1.4,1.4-3.6,1.4-5,0c-1.6-1.6-0.5-5.5-0.5-5.5s3.9-1.1,5.5,0.5
			C27.4,22.4,27.4,24.7,26.1,26z M21.7,32.6c-0.7,1.8-2.8,2.7-4.6,1.9c-2.2-0.9-2.6-4.9-2.6-4.9s3.2-2.5,5.3-1.6
			C21.6,28.8,22.4,30.8,21.7,32.6z M16.6,36.9c1.9,0,3.5,1.6,3.5,3.5c0,1.9-1.6,3.5-3.5,3.5c-2.3,0-4.3-3.5-4.3-3.5
			S14.3,36.9,16.6,36.9z M17,46.2c1.8-0.7,3.9,0.1,4.6,1.9c0.7,1.8-0.1,3.9-1.9,4.6c-2.2,0.9-5.3-1.6-5.3-1.6S14.9,47.1,17,46.2z
			 M21.1,54.7c1.4-1.4,3.6-1.4,5,0c1.4,1.4,1.4,3.6,0,5c-1.6,1.6-5.5,0.5-5.5,0.5S19.4,56.4,21.1,54.7z M35.9,26.9
			c0-3,4.6-5.6,4.6-5.6s4.6,2.5,4.6,5.6c0,2.5-2,4.6-4.6,4.6C37.9,31.4,35.9,29.4,35.9,26.9z M46.8,27.6c2.1-2.1,7.2-0.7,7.2-0.7
			s1.4,5-0.7,7.1c-1.8,1.8-4.7,1.8-6.5,0C45,32.3,45,29.4,46.8,27.6z M46.3,17.1c0.9-2.2,4.9-2.6,4.9-2.6s2.5,3.2,1.6,5.3
			c-0.7,1.8-2.8,2.6-4.6,1.9C46.4,20.9,45.5,18.9,46.3,17.1z M59.1,32.7c-0.7-1.8,0.1-3.9,1.9-4.6c2.2-0.9,5.3,1.6,5.3,1.6
			s-0.5,4-2.6,4.9C61.9,35.3,59.9,34.5,59.1,32.7z M59.5,40.4c0,0-2.5,4.6-5.6,4.6c-2.5,0-4.6-2-4.6-4.6c0-2.5,2-4.6,4.6-4.6
			C57,35.8,59.5,40.4,59.5,40.4z M59.7,26.1c-1.4,1.4-3.6,1.4-5,0c-1.4-1.4-1.4-3.6,0-5c1.6-1.6,5.5-0.5,5.5-0.5
			S61.4,24.4,59.7,26.1z M54.7,54.7c1.4-1.4,3.6-1.4,5,0c1.6,1.6,0.5,5.5,0.5,5.5s-3.9,1.1-5.5-0.5C53.3,58.3,53.3,56.1,54.7,54.7z
			 M59.1,48.2c0.7-1.8,2.8-2.6,4.6-1.9c2.2,0.9,2.6,4.9,2.6,4.9s-3.2,2.5-5.3,1.6C59.2,52,58.4,50,59.1,48.2z M64.2,43.9
			c-1.9,0-3.5-1.6-3.5-3.5c0-1.9,1.6-3.5,3.5-3.5c2.3,0,4.3,3.5,4.3,3.5S66.5,43.9,64.2,43.9z M69.4,21c0,0,0.2,2.9-1.2,3.8
			c-1.2,0.8-2.7,0.5-3.5-0.7c-0.8-1.2-0.5-2.7,0.7-3.5C66.8,19.7,69.4,21,69.4,21z M65.1,15.8c0,0,0.8,2.8-0.4,4c-1,1-2.6,1-3.6,0
			c-1-1-1-2.6,0-3.6C62.3,15,65.1,15.8,65.1,15.8z M55.9,12.6c0.9-1.4,3.8-1.2,3.8-1.2s1.3,2.6,0.4,4c-0.8,1.2-2.4,1.5-3.5,0.7
			C55.5,15.3,55.2,13.8,55.9,12.6z M50.2,10.1c0.6-1.6,3.5-1.9,3.5-1.9s1.8,2.3,1.2,3.8c-0.5,1.3-2,1.9-3.3,1.4
			C50.3,12.9,49.7,11.4,50.2,10.1z M44.1,8.8c0.3-1.6,3.1-2.5,3.1-2.5s2.2,1.9,1.9,3.5c-0.3,1.4-1.6,2.3-3,2
			C44.7,11.5,43.8,10.1,44.1,8.8z M40.4,5.6c0,0,2.5,1.4,2.5,3.1c0,1.4-1.1,2.5-2.5,2.5c-1.4,0-2.5-1.1-2.5-2.5
			C37.9,7,40.4,5.6,40.4,5.6z M40.4,12.3c0,0,3.5,2,3.5,4.3c0,1.9-1.6,3.5-3.5,3.5c-1.9,0-3.5-1.6-3.5-3.5
			C36.9,14.3,40.4,12.3,40.4,12.3z M33.6,6.2c0,0,2.8,0.9,3.1,2.5c0.3,1.4-0.6,2.7-2,3c-1.4,0.3-2.7-0.6-3-2
			C31.4,8.1,33.6,6.2,33.6,6.2z M27.1,8.2c0,0,2.9,0.3,3.5,1.9c0.5,1.3-0.1,2.8-1.4,3.3c-1.3,0.5-2.8-0.1-3.3-1.4
			C25.3,10.5,27.1,8.2,27.1,8.2z M21.1,11.4c0,0,2.9-0.2,3.8,1.2c0.8,1.2,0.5,2.7-0.7,3.5c-1.2,0.8-2.7,0.5-3.5-0.7
			C19.7,14,21.1,11.4,21.1,11.4z M15.8,15.8c0,0,2.8-0.8,4,0.4c1,1,1,2.6,0,3.6c-1,1-2.6,1-3.6,0C15,18.6,15.8,15.8,15.8,15.8z
			 M11.4,21c0,0,2.6-1.3,4-0.4c1.2,0.8,1.5,2.4,0.7,3.5c-0.8,1.2-2.4,1.5-3.5,0.7C11.2,23.9,11.4,21,11.4,21z M12.1,25.9
			c1.3,0.5,1.9,2,1.4,3.3c-0.5,1.3-2,1.9-3.3,1.4c-1.6-0.6-1.9-3.5-1.9-3.5S10.5,25.3,12.1,25.9z M9.8,31.7c1.4,0.3,2.3,1.6,2,3
			c-0.3,1.4-1.6,2.3-3,2c-1.6-0.3-2.5-3.1-2.5-3.1S8.1,31.4,9.8,31.7z M8.7,37.9c1.4,0,2.5,1.1,2.5,2.5c0,1.4-1.1,2.5-2.5,2.5
			c-1.7,0-3.1-2.5-3.1-2.5S7,37.9,8.7,37.9z M6.2,47.2c0,0,0.9-2.8,2.5-3.1c1.4-0.3,2.7,0.6,3,2c0.3,1.4-0.6,2.7-2,3
			C8.1,49.4,6.2,47.2,6.2,47.2z M8.2,53.7c0,0,0.3-2.9,1.9-3.5c1.3-0.5,2.8,0.1,3.3,1.4c0.5,1.3-0.1,2.8-1.4,3.3
			C10.5,55.5,8.2,53.7,8.2,53.7z M11.5,59.8c0,0-0.2-2.9,1.2-3.8c1.2-0.8,2.7-0.5,3.5,0.7c0.8,1.2,0.5,2.7-0.7,3.5
			C14,61.1,11.5,59.8,11.5,59.8z M15.8,65c0,0-0.8-2.8,0.4-4c1-1,2.6-1,3.6,0c1,1,1,2.6,0,3.6C18.6,65.8,15.8,65,15.8,65z
			 M24.9,68.2c-0.9,1.4-3.8,1.2-3.8,1.2s-1.3-2.6-0.4-4c0.8-1.2,2.4-1.5,3.5-0.7C25.4,65.5,25.7,67,24.9,68.2z M30.6,70.7
			c-0.6,1.6-3.5,1.9-3.5,1.9s-1.8-2.3-1.2-3.8c0.5-1.3,2-1.9,3.3-1.4C30.5,67.9,31.2,69.4,30.6,70.7z M36.7,72
			c-0.3,1.6-3.1,2.5-3.1,2.5s-2.2-1.9-1.9-3.5c0.3-1.4,1.6-2.3,3-2C36.1,69.3,37,70.7,36.7,72z M40.4,68.5c0,0-3.5-2-3.5-4.3
			c0-1.9,1.6-3.5,3.5-3.5c1.9,0,3.5,1.6,3.5,3.5C43.9,66.5,40.4,68.5,40.4,68.5z M47.2,74.6c0,0-2.8-0.9-3.1-2.5
			c-0.3-1.4,0.6-2.7,2-3c1.4-0.3,2.7,0.6,3,2C49.4,72.7,47.2,74.6,47.2,74.6z M53.8,72.6c0,0-2.9-0.3-3.5-1.9
			c-0.5-1.3,0.1-2.8,1.4-3.3c1.3-0.5,2.8,0.1,3.3,1.4C55.6,70.3,53.8,72.6,53.8,72.6z M59.8,69.4c0,0-2.9,0.2-3.8-1.2
			c-0.8-1.2-0.5-2.7,0.7-3.5c1.2-0.8,2.7-0.5,3.5,0.7C61.1,66.8,59.8,69.4,59.8,69.4z M65.1,65c0,0-2.8,0.8-4-0.4c-1-1-1-2.6,0-3.6
			c1-1,2.6-1,3.6,0C65.9,62.2,65.1,65,65.1,65z M69.4,59.8c0,0-2.6,1.3-4,0.4c-1.2-0.8-1.5-2.4-0.7-3.5c0.8-1.2,2.4-1.5,3.5-0.7
			C69.6,56.9,69.4,59.8,69.4,59.8z M68.8,54.9c-1.3-0.5-1.9-2-1.4-3.3c0.5-1.3,2-1.9,3.3-1.4c1.6,0.6,1.9,3.5,1.9,3.5
			S70.3,55.5,68.8,54.9z M71.1,49.1c-1.4-0.3-2.3-1.6-2-3c0.3-1.4,1.6-2.3,3-2c1.6,0.3,2.5,3.1,2.5,3.1S72.7,49.4,71.1,49.1z"/>
	</g>
	<g>
		<path fill="#60BDCB" d="M104.1,34.6h-5.3V16.9h4.9c3.6,0,5.5,1.6,5.5,4.4c0,1.8-0.9,3.2-2.2,3.8c1.8,0.4,3.3,2,3.3,4.3
			C110.2,32.9,107.5,34.6,104.1,34.6z M103.4,18.9h-2.2v5.6h2.6c2,0,2.8-1.2,2.8-2.9C106.6,19.9,105.7,18.9,103.4,18.9z M103.7,26.4
			h-2.5v6.1h3.1c1.8,0,3.3-1,3.3-2.9C107.6,27.6,106.3,26.4,103.7,26.4z"/>
		<path fill="#60BDCB" d="M121.3,34.6l-0.2-1.3c-1.3,1.1-2.5,1.6-4.2,1.6c-2.7,0-4.4-1.3-4.4-3.8c0-2.8,2.4-4,6-4h2.2v-0.8
			c0-2-0.7-3-3-3c-1.2,0-2.6,0.3-3.8,0.7l-0.5-1.8c1.2-0.5,2.9-0.8,4.6-0.8c3.7,0,5,1.9,5,4.4v8.9H121.3z M120.7,28.7h-2.2
			c-2.4,0-3.6,0.8-3.6,2.2c0,1.3,0.8,2.1,2.3,2.1c1.4,0,2.4-0.6,3.4-1.4V28.7z"/>
		<path fill="#60BDCB" d="M131.6,34.6c-0.4,0.1-1,0.2-1.6,0.2c-1.7,0-2.8-0.7-2.8-2.8V15.5h2.4v15.9c0,0.9,0.3,1.4,1.1,1.4h1V34.6z"
			/>
		<path fill="#60BDCB" d="M142.1,34.6l-0.2-1.3c-1.3,1.1-2.5,1.6-4.2,1.6c-2.7,0-4.4-1.3-4.4-3.8c0-2.8,2.4-4,6-4h2.2v-0.8
			c0-2-0.7-3-3-3c-1.2,0-2.6,0.3-3.8,0.7l-0.5-1.8c1.2-0.5,2.9-0.8,4.6-0.8c3.7,0,5,1.9,5,4.4v8.9H142.1z M141.6,28.7h-2.2
			c-2.4,0-3.6,0.8-3.6,2.2c0,1.3,0.8,2.1,2.3,2.1c1.4,0,2.4-0.6,3.4-1.4V28.7z"/>
		<path fill="#60BDCB" d="M153.9,34.6c-0.5,0.2-1.3,0.3-2.1,0.3c-2,0-3.4-0.9-3.4-3.5v-7.8h-2v-1.8h2l0.6-3.8h1.9v3.8h3.1v1.8h-3.1
			v7.4c0,1.8,0.7,2,2,2h1.1V34.6z"/>
		<path fill="#60BDCB" d="M162.3,34.9c-4.1,0-6.4-2.6-6.4-6.6c0-4.1,2.4-7,6.6-7c4.1,0,6.4,2.6,6.4,6.7
			C168.9,32,166.5,34.9,162.3,34.9z M162.3,23.3c-2.6,0-3.9,2-3.9,4.7c0,2.7,1.1,5,4,5c2.6,0,3.9-2,3.9-4.7
			C166.4,25.5,165.2,23.3,162.3,23.3z"/>
		<path fill="#60BDCB" d="M180.9,34.6V27c0-2.2-0.6-3.7-2.6-3.7c-1.6,0-2.5,0.8-3.8,2.2v9.1h-2.4v-13h1.8l0.3,1.9
			c1.4-1.5,2.6-2.2,4.5-2.2c3.3,0,4.5,2.3,4.5,5.2v8.1H180.9z"/>
		<path fill="#60BDCB" d="M186.3,28.7v-1.9h6.5v1.9H186.3z"/>
		<path fill="#60BDCB" d="M200.2,17.2c-2.1,0-2.3,1.4-2.3,3.1v1.4h3v1.8h-3v11.1h-2.4V23.5h-2v-1.8h2v-1.3c0-3,0.9-5.1,4.2-5.1
			c0.7,0,1.2,0.1,1.7,0.2v1.8H200.2z"/>
		<path fill="#60BDCB" d="M213.7,28.5h-8.9c0,2.7,1,4.5,4.1,4.5c1.6,0,2.9-0.2,4.2-0.6l0.3,1.8c-1.4,0.4-3,0.7-4.9,0.7
			c-4.2,0-6.2-2.2-6.2-6.7c0-4.2,2.2-6.9,6.1-6.9c3.6,0,5.3,2.5,5.3,5.8C213.8,27.5,213.7,28.1,213.7,28.5z M211.4,26.8
			c0.1-2.2-1-3.7-3.1-3.7c-2.3,0-3.4,2-3.5,3.7H211.4z"/>
		<path fill="#60BDCB" d="M221.6,34.6c-0.4,0.1-1,0.2-1.6,0.2c-1.7,0-2.8-0.7-2.8-2.8V15.5h2.4v15.9c0,0.9,0.3,1.4,1.1,1.4h1V34.6z"
			/>
		<path fill="#60BDCB" d="M234.1,21.6c-1.2,4.3-2.7,8.6-4.5,13h-2.5c-1.8-4.3-3.4-8.7-4.5-13h2.5c0.8,3,1.7,5.9,2.8,8.7
			c0.2,0.5,0.4,1.2,0.6,1.7h0.1c0.2-0.6,0.4-1.2,0.6-1.8c1-2.8,2-5.7,2.7-8.6H234.1z"/>
		<path fill="#60BDCB" d="M237.4,34.6V23.5h-2.2v-1.8h4.6v13H237.4z M238.5,19.2c-0.9,0-1.6-0.7-1.6-1.6c0-0.9,0.7-1.6,1.6-1.6
			c0.9,0,1.6,0.7,1.6,1.6C240.1,18.5,239.4,19.2,238.5,19.2z"/>
		<path fill="#60BDCB" d="M253.1,34.6l-0.2-1.9c-1.3,1.4-2.6,2.2-4.7,2.2c-3.5,0-5.1-2.8-5.1-6.3c0-3.9,2-7.1,6.6-7.1
			c1,0,1.9,0.1,2.9,0.3v-6.2h2.4v19.1H253.1z M252.6,23.9c-0.8-0.4-1.8-0.6-2.9-0.6c-2.6,0-4,1.9-4,5c0,2.3,0.7,4.6,3,4.6
			c1.4,0,2.6-0.7,3.9-2.3V23.9z"/>
		<path fill="#60BDCB" d="M269.7,28.5h-8.9c0,2.7,1,4.5,4.1,4.5c1.6,0,2.9-0.2,4.2-0.6l0.3,1.8c-1.4,0.4-3,0.7-4.9,0.7
			c-4.2,0-6.2-2.2-6.2-6.7c0-4.2,2.2-6.9,6.1-6.9c3.6,0,5.3,2.5,5.3,5.8C269.7,27.5,269.7,28.1,269.7,28.5z M267.3,26.8
			c0.1-2.2-1-3.7-3.1-3.7c-2.3,0-3.4,2-3.5,3.7H267.3z M264.3,19.8l-1.3-0.9l2.9-3.6l1.9,1.2L264.3,19.8z"/>
		<path fill="#60BDCB" d="M281.1,34.6l-4.6-6.6l-1.1,1v5.6h-2.4V15.5h2.4v11c1.6-1.6,3.3-3.3,4.9-4.9h3.1l-5.2,4.7l5.9,8.2H281.1z"
			/>
		<path fill="#60BDCB" d="M287.3,34.6V23.5h-2.2v-1.8h4.6v13H287.3z M288.4,19.2c-0.9,0-1.6-0.7-1.6-1.6c0-0.9,0.7-1.6,1.6-1.6
			c0.9,0,1.6,0.7,1.6,1.6C290,18.5,289.3,19.2,288.4,19.2z"/>
		<g>
			<polygon fill="#60BDCB" points="112.9,60.4 102.1,41.1 102.1,41 98.8,41 98.8,64 101.1,64 101.1,44 112.2,64 112.2,64 115.2,64 
				115.2,41 112.9,41 			"/>
			<path fill="#60BDCB" d="M127.8,46.9c-4.7,0-7.7,3.4-7.7,8.8c0,5.9,2.5,8.7,7.7,8.7c2.1,0,4.2-0.3,6-0.9l0.1,0l-0.4-1.9l-0.1,0
				c-1.7,0.5-3.1,0.8-5.2,0.8c-3.9,0-5.7-2-5.7-6.5h11.7v-0.1c0-0.3,0-0.6,0-0.9c0-0.2,0-0.4,0-0.6
				C134.4,49.8,131.8,46.9,127.8,46.9z M127.7,48.9c1.3,0,2.3,0.4,3.1,1.2c0.9,0.9,1.3,2.3,1.3,3.9h-9.4
				C122.7,51.5,124.5,48.9,127.7,48.9z"/>
			<path fill="#60BDCB" d="M157,46.9c-2.3,0-3.8,0.9-5.6,3.3c-0.7-2.2-2.3-3.3-4.8-3.3c-2.4,0-3.8,1.1-5.4,2.9l-0.3-2.5H139V64h2.3
				v-12c1.8-2.1,2.8-3.1,5-3.1c2.6,0,3.1,1.9,3.1,5.1v10h2.3v-12c1.8-2.1,2.8-3.1,5-3.1c2.6,0,3.1,1.9,3.1,5.1v10h2.3V53.6
				C162.2,50.5,161.6,46.9,157,46.9z"/>
			<polygon fill="#60BDCB" points="178.2,49.2 178.2,47.3 166.9,47.3 166.9,49.3 175.7,49.3 166.4,62 166.4,62 166.4,64 178.8,64 
				178.8,62 168.9,62 			"/>
			<path fill="#60BDCB" d="M189.1,46.9c-4.7,0-7.7,3.4-7.7,8.8c0,5.9,2.5,8.7,7.7,8.7c2.1,0,4.2-0.3,6-0.9l0.1,0l-0.4-1.9l-0.1,0
				c-1.7,0.5-3.1,0.8-5.2,0.8c-3.9,0-5.7-2-5.7-6.5h11.7v-0.1c0-0.3,0-0.6,0-0.9c0-0.2,0-0.4,0-0.6
				C195.7,49.8,193.1,46.9,189.1,46.9z M188.9,48.9c1.3,0,2.3,0.4,3.1,1.2c0.9,0.9,1.3,2.3,1.3,3.9h-9.4
				C184,51.5,185.8,48.9,188.9,48.9z"/>
			<path fill="#60BDCB" d="M203.3,42.4h-1.8l-0.5,4.9h-2.7v1.8h2.7v10.7c0,2.9,1.4,4.4,4.3,4.4c0.7,0,1.6-0.1,2.2-0.2l0.1,0v-1.7
				H206c-1.8,0-2.7-0.2-2.7-2.4V49.1h4.3v-1.8h-4.3V42.4z"/>
			<path fill="#60BDCB" d="M213.4,40.2c-1,0-1.7,0.8-1.7,1.7c0,1,0.8,1.7,1.7,1.7c1,0,1.7-0.8,1.7-1.7
				C215.2,41,214.4,40.2,213.4,40.2z"/>
			<polygon fill="#60BDCB" points="209.4,49.1 212.5,49.1 212.5,64 214.8,64 214.8,47.3 209.4,47.3 			"/>
			<path fill="#60BDCB" d="M238.1,41.3c-0.7-0.2-1.6-0.3-2.7-0.3h-5.8v23h2.4v-9.1h3.5c4.6,0,7.5-2.8,7.5-7.2
				C243.1,44.4,241.2,42,238.1,41.3z M235.7,52.8H232v-9.7h3.2c0.8,0,1.5,0.1,2,0.2c2.1,0.5,3.3,2.2,3.3,4.6
				C240.5,51,238.7,52.8,235.7,52.8z"/>
			<path fill="#60BDCB" d="M252.3,46.9c-1.9,0-4,0.4-5.7,1l-0.1,0l0.5,2l0.1,0c1.5-0.6,3.2-0.9,4.7-0.9c3,0,4.1,1.2,4.1,4.3v1.1
				h-3.4c-4.6,0-7.3,1.9-7.3,5.1c0,3.1,2,4.9,5.6,4.9c2.1,0,3.6-0.6,5.3-2l0.2,1.7h1.8V52.5C258.2,50.4,257.5,46.9,252.3,46.9z
				 M251.1,62.4c-2.1,0-3.3-1.1-3.3-3c0-2,1.7-3.1,4.8-3.1h3.3v4.1C254.4,61.7,253,62.4,251.1,62.4z"/>
			<path fill="#60BDCB" d="M270.5,46.9c-1.6,0-2.7,1.1-4.6,3.5l-0.2-3.2h-1.8V64h2.3V52.9c2.3-2.8,3.3-3.8,4.4-3.8
				c0.5,0,1.3,0.2,1.8,0.3l0.1,0l0.5-2.1l-0.1,0C271.9,47,271.3,46.9,270.5,46.9z"/>
			<path fill="#60BDCB" d="M281.5,53.7l7.4-6.4h-3.2l0,0c-2,1.9-4.3,4.1-7,6.6V39.3h-2.3V64h2.3v-7.8l1.3-1.1l6.9,8.8l0,0h3.1
				L281.5,53.7z"/>
		</g>
	</g>
</g>
</svg>
